<svg version="1.2" xmlns="http://www.w3.org/2000/svg" viewBox="0 0 800 800" width="800" height="800"><defs><clipPath clipPathUnits="userSpaceOnUse" id="cp1"><path d="m517.49 58.98c19.78-8.39 42.6 0.83 50.99 20.59l198.67 468.04c8.39 19.76-0.84 42.58-20.61 50.98l-463.77 196.86c-19.78 8.39-42.6-0.83-50.99-20.59l-198.67-468.04c-8.39-19.76 0.84-42.59 20.61-50.98l12.67-5.38c19.77-8.39 42.6 0.83 50.99 20.59l6.38 14.17c6.34 14.93 23.58 21.89 38.52 15.55 14.94-6.34 1.62-0.69 16.56-7.03 14.94-6.34 21.92-23.58 15.58-38.52l-6.02-14.31c-8.39-19.76 0.82-42.56 20.57-50.97l156.39-66.38c19.77-8.38 42.58 0.84 50.97 20.59l6.37 14.17c6.34 14.93 23.59 21.9 38.53 15.56 14.94-6.34 1.62-0.69 16.56-7.03 14.94-6.34 21.91-23.59 15.57-38.52l-6.02-14.32c-8.38-19.75 0.83-42.56 20.57-50.96zm-375.81 382.29l115.6 273.99c8.39 19.77 31.22 28.98 50.99 20.59l375.92-159.57c19.77-8.39 29-31.21 20.61-50.98l-116.2-273.74c-8.39-19.76-31.22-28.98-50.99-20.59l-375.32 159.32c-19.77 8.39-29 31.22-20.61 50.98zm333.97 64.34c4.35-5.15 9.11-9.63 14.1-13.37l-42.96-119.08-92.66 55.48 57.9 160.47q1.1 3.08 1.54 6.2c4.05 17.05-2.09 39.22-17.63 57.63-22.25 26.36-55.36 35.02-73.96 19.33-18.59-15.68-15.62-49.76 6.63-76.12 4.55-5.39 9.55-10.03 14.79-13.89l-56.42-156.39c-4.96-13.76 0.38-28.73 12.06-36.47q1.48-1.15 3.12-2.14l143.21-85.75q0.94-0.56 1.9-1.05 2.54-1.53 5.44-2.58c16.16-5.83 33.99 2.54 39.82 18.69l64.51 178.82c9.66 17.57 4.53 44.99-14.06 67.01-22.25 26.36-55.37 35.01-73.96 19.33-18.59-15.68-15.62-49.76 6.63-76.12zm-375.36-373.36c15.82-6.71 34.09 0.66 40.8 16.47l42.4 99.9c6.71 15.81-0.67 34.06-16.49 40.78-15.82 6.71-34.08-0.66-40.79-16.47l-42.41-99.89c-6.71-15.81 0.68-34.07 16.49-40.79zm298.65-126.77c15.82-6.71 34.08 0.66 40.79 16.47l42.41 99.9c6.71 15.81-0.68 34.07-16.49 40.78-15.82 6.72-34.09-0.66-40.8-16.47l-42.4-99.89c-6.71-15.81 0.67-34.07 16.49-40.79zm-345.22 250.36l463.77-196.86"/></clipPath></defs><style>.a{fill:#61b3ff}</style><g clip-path="url(#cp1)"><path fill-rule="evenodd" class="a" d="m517.5 59c19.8-8.4 42.6 0.8 51 20.6l198.7 468c8.3 19.8-0.9 42.6-20.7 51l-463.7 196.8c-19.8 8.4-42.6-0.8-51-20.5l-198.7-468.1c-8.4-19.7 0.8-42.6 20.6-51l12.7-5.3c19.8-8.4 42.6 0.8 51 20.5l6.4 14.2c6.3 14.9 23.5 21.9 38.5 15.6 14.9-6.4 1.6-0.7 16.5-7.1 15-6.3 22-23.5 15.6-38.5l-6-14.3c-8.4-19.7 0.8-42.6 20.6-51l156.4-66.3c19.7-8.4 42.5 0.8 50.9 20.6l6.4 14.1c6.3 15 23.6 21.9 38.5 15.6 15-6.4 1.6-0.7 16.6-7.1 14.9-6.3 21.9-23.5 15.6-38.5l-6.1-14.3c-8.3-19.7 0.9-42.5 20.6-51zm-375.8 382.3l115.6 274c8.4 19.8 31.2 29 51 20.6l375.9-159.5c19.8-8.4 29-31.3 20.6-51l-116.2-273.8c-8.4-19.7-31.2-28.9-51-20.6l-375.3 159.4c-19.8 8.4-29 31.2-20.6 50.9zm334 64.4c4.3-5.2 9.1-9.6 14.1-13.4l-43-119.1-92.6 55.5 57.8 160.5q1.2 3.1 1.6 6.2c4 17-2.1 39.2-17.6 57.6-22.3 26.4-55.4 35-74 19.3-18.6-15.6-15.6-49.7 6.6-76.1 4.6-5.4 9.6-10 14.8-13.9l-56.4-156.4c-5-13.7 0.4-28.7 12.1-36.4q1.4-1.2 3.1-2.2l143.2-85.7q0.9-0.6 1.9-1.1 2.5-1.5 5.4-2.5c16.2-5.9 34 2.5 39.9 18.6l64.5 178.9c9.6 17.5 4.5 44.9-14.1 67-22.3 26.3-55.4 35-74 19.3-18.5-15.7-15.6-49.8 6.7-76.1zm-375.4-373.4c15.8-6.7 34.1 0.7 40.8 16.5l42.4 99.9c6.7 15.8-0.7 34.1-16.5 40.8-15.8 6.7-34.1-0.7-40.8-16.5l-42.4-99.9c-6.7-15.8 0.7-34.1 16.5-40.8zm298.7-126.7c15.8-6.8 34 0.6 40.8 16.4l42.4 99.9c6.7 15.8-0.7 34.1-16.5 40.8-15.9 6.7-34.1-0.7-40.8-16.5l-42.4-99.9c-6.7-15.8 0.6-34 16.5-40.7zm-345.3 250.3l463.8-196.9"/><rect width="800" height="800" style="fill:#fff"/></g></svg>